<svg width="20" height="20" viewBox="0 0 20 20" fill="none" xmlns="http://www.w3.org/2000/svg">
<path d="M1.66943 19.5C1.66997 19.5 1.67014 19.5 1.66995 19.5L1.66945 19.5M1.66943 19.5L1.66945 19.5M1.66943 19.5L1.66833 19.5L1.66757 19.5H1.66945M1.66943 19.5L1.66461 19.4999C1.6583 19.4997 1.64673 19.4992 1.63068 19.498C1.5984 19.4957 1.54902 19.4909 1.48845 19.4808C1.36495 19.4602 1.20792 19.4199 1.05694 19.3445C0.907922 19.2699 0.774113 19.166 0.676442 19.0195C0.580857 18.8761 0.5 18.6625 0.5 18.3333C0.5 17.6049 0.883352 15.6311 2.26968 13.8486C3.63369 12.0949 5.98829 10.5 10 10.5C14.0117 10.5 16.3663 12.0949 17.7303 13.8486C19.1166 15.6311 19.5 17.6049 19.5 18.3333C19.5 18.6625 19.4191 18.8761 19.3236 19.0195C19.2259 19.166 19.0921 19.2699 18.9431 19.3445C18.7921 19.4199 18.6351 19.4602 18.5116 19.4808C18.451 19.4909 18.4016 19.4957 18.3693 19.498C18.3533 19.4992 18.3417 19.4997 18.3354 19.4999L18.3306 19.5M1.66945 19.5H18.3305M18.3306 19.5L18.3305 19.5M18.3306 19.5L18.3317 19.5L18.3324 19.5H18.3305M18.3306 19.5C18.33 19.5 18.3299 19.5 18.3301 19.5L18.3305 19.5M13.182 8.18198C12.3381 9.02589 11.1935 9.5 10 9.5C8.80653 9.5 7.66193 9.02589 6.81802 8.18198C5.97411 7.33807 5.5 6.19347 5.5 5C5.5 3.80653 5.97411 2.66193 6.81802 1.81802C7.66193 0.974106 8.80653 0.5 10 0.5C11.1935 0.5 12.3381 0.974106 13.182 1.81802C14.0259 2.66193 14.5 3.80653 14.5 5C14.5 6.19347 14.0259 7.33807 13.182 8.18198Z" stroke="white"/>
</svg>
