<svg width="17" height="22" viewBox="0 0 17 22" fill="none" xmlns="http://www.w3.org/2000/svg">
<path fill-rule="evenodd" clip-rule="evenodd" d="M14.6275 11.9445L14.6275 11.9446L8.29297 20.3398L1.95841 11.9446C1.28733 11.0552 1 9.72975 1 8.29297C1 4.26517 4.26519 1 8.29297 1C12.3208 1 15.5859 4.26517 15.5859 8.29297C15.5859 8.90384 15.5015 9.62605 15.3294 10.3066C15.1544 10.9989 14.9072 11.5739 14.6275 11.9445ZM15.4258 12.5469L8.91934 21.1699L8.29297 22L7.66661 21.1699L1.16015 12.5469C0.299805 11.4067 0 9.82467 0 8.29297C0 3.71288 3.7129 0 8.29297 0C12.873 0 16.5859 3.71288 16.5859 8.29297C16.5859 9.68035 16.2072 11.5112 15.4258 12.5469ZM8.29296 5.70363C9.19298 5.70363 9.92259 6.43324 9.92259 7.33326C9.92259 8.23328 9.19298 8.96289 8.29296 8.96289C7.39294 8.96289 6.66333 8.23328 6.66333 7.33326C6.66333 6.43324 7.39294 5.70363 8.29296 5.70363Z" fill="white"/>
</svg>
