<svg width="141" height="23" viewBox="0 0 141 23" fill="none" xmlns="http://www.w3.org/2000/svg">
<path fill-rule="evenodd" clip-rule="evenodd" d="M50.0818 9.82807C50.5908 10.1104 51.239 10.254 51.9949 10.254C52.7626 10.254 53.3809 10.1104 53.9126 9.82807C54.4538 9.56951 54.7071 9.23165 54.7071 8.85889C54.7071 8.46234 54.4538 8.15224 53.9126 7.8921C53.3809 7.60658 52.7626 7.46779 51.9949 7.49634C51.239 7.46779 50.6136 7.60658 50.0818 7.8921C49.5477 8.15224 49.296 8.46155 49.296 8.85889C49.2968 9.23086 49.5485 9.56951 50.0818 9.82807Z" fill="white"/>
<path fill-rule="evenodd" clip-rule="evenodd" d="M88.5809 9.79656C89.0899 10.0543 89.7396 10.1955 90.5003 10.1955C91.2326 10.1955 91.8823 10.0543 92.4141 9.79656C92.9545 9.51421 93.2062 9.19776 93.2062 8.82976C93.2062 8.43242 92.9545 8.09376 92.4141 7.83838C91.8823 7.58221 91.2326 7.43945 90.5003 7.43945C89.7388 7.43945 89.1206 7.58301 88.5809 7.83838C88.0484 8.09376 87.7959 8.43242 87.7959 8.82976C87.7959 9.19697 88.0492 9.51342 88.5809 9.79656Z" fill="white"/>
<path fill-rule="evenodd" clip-rule="evenodd" d="M138.214 17.3532C138.214 17.3532 105.407 17.3532 105.202 17.3532C98.2783 16.4649 97.6395 13.4368 97.4507 12.3479C97.4507 12.3463 97.4507 12.3407 97.4507 12.3392C97.45 12.2678 97.4216 11.6793 97.4114 11.4826C97.4201 11.4533 97.4319 11.4263 97.4374 11.3954C98.0446 8.12303 100.559 6.29889 105.111 5.81906C105.295 5.81906 138.134 5.81906 138.134 5.81906C138.913 5.81906 139.538 5.18458 139.538 4.39703C139.538 3.61185 138.913 2.97499 138.134 2.97499H105.013C104.964 2.97499 104.921 2.98213 104.872 2.98451C97.5153 3.7443 95.2608 7.68523 94.674 10.8616C94.6087 11.0305 94.5765 11.2177 94.5859 11.4168L94.6543 12.6683C94.6543 12.7238 94.6543 12.7135 94.6583 12.7643C94.8714 14.0197 95.3403 15.1206 96.0514 16.0707L89.801 12.5652L72.0865 2.64823C71.6436 2.2834 71.0057 2.20885 70.4802 2.51737L46.6467 16.5283V3.94416C46.6467 3.16137 46.015 2.52451 45.2347 2.52451C45.1026 2.52451 44.9767 2.54909 44.8548 2.5832C44.6629 2.58875 44.4686 2.63158 44.2853 2.72199L23.1436 13.0085C23.0437 13.0577 22.954 13.1188 22.8714 13.187L20.6044 14.3188L23.0389 15.5552C23.245 15.6607 23.4653 15.7043 23.6816 15.7027C23.9113 15.7162 24.1473 15.6789 24.3691 15.5711L43.8267 6.10299V18.7752C43.8267 19.1995 44.0116 19.5746 44.301 19.8356C44.736 20.3527 45.4857 20.5018 46.0874 20.1441L54.5049 15.1983C54.5199 15.2015 54.5333 15.207 54.5482 15.2094L59.3001 12.3852H59.293L71.1874 5.39634L83.6803 12.3852H61.7355L56.9073 15.2269H88.7579L97.9046 20.3646C98.585 20.7437 99.444 20.4986 99.8208 19.8126C99.9687 19.5445 100.018 19.2495 99.9868 18.9671C101.374 19.5413 103.02 19.9482 104.926 20.1877C104.982 20.1941 105.038 20.2012 105.1 20.2012H138.215C138.993 20.2012 139.626 19.5667 139.626 18.7768C139.625 17.99 138.992 17.3532 138.214 17.3532Z" fill="white"/>
<path fill-rule="evenodd" clip-rule="evenodd" d="M3.47989 2.41821C2.78689 2.06131 1.93735 2.34683 1.58809 3.04476C1.49134 3.23748 1.44571 3.43972 1.43942 3.64117C1.40402 3.76648 1.37964 3.89496 1.37964 4.03138V18.86C1.37964 19.6468 2.00814 20.2844 2.78925 20.2844C3.56484 20.2844 4.19728 19.6468 4.19728 18.86V5.97052L19.2475 13.6279L22.4113 12.0576L3.47989 2.41821Z" fill="white"/>
</svg>
